<?xml version="1.0" encoding="utf-8"?>
<!-- Generator: Adobe Illustrator 28.3.0, SVG Export Plug-In . SVG Version: 6.00 Build 0)  -->
<svg version="1.1" id="Layer_1" xmlns="http://www.w3.org/2000/svg" xmlns:xlink="http://www.w3.org/1999/xlink" x="0px" y="0px"
	 viewBox="0 0 79.7 79.8" style="enable-background:new 0 0 79.7 79.8;" xml:space="preserve">
<style type="text/css">
	.st0{opacity:0.4;enable-background:new    ;}
	.st1{fill:#637381;}
</style>
<g class="st0">
	<path class="st1" d="M34.7,72.3c-0.8-0.4-1.8-2.2-2.3-4.1c-1.2-4.5-3.3-5.5-6.8-3.3c-3.8,2.3-4.8,2.2-8.8-1.9s-4.2-4.9-1.8-8.7
		c2.2-3.5,1.3-5.2-3.5-6.8c-3.1-1.1-3.7-1.7-4.3-4.4c-0.5-1.9-0.5-4.2,0-6.2c0.7-2.7,1.2-3.3,4.3-4.4c4.8-1.7,5.7-3.3,3.5-6.8
		c-2.3-3.8-2.2-4.7,1.8-8.7s5-4.2,8.8-1.9c3.5,2.2,5.2,1.3,6.8-3.5c1.1-3.1,1.7-3.7,4.4-4.3c1.9-0.5,4.2-0.5,6.2,0
		c2.7,0.7,3.3,1.2,4.4,4.3c1.7,4.8,3.3,5.7,6.8,3.5c3.8-2.3,4.8-2.2,8.8,1.9c4,4.1,4.2,4.9,1.8,8.7c-2.2,3.5-1.3,5.2,3.5,6.8
		c3.1,1.1,3.7,1.7,4.3,4.4c0.5,1.9,0.5,4.2,0,6.2c-0.7,2.7-1.2,3.3-4.3,4.4c-4.8,1.7-5.7,3.3-3.5,6.8C67.2,58,67,59,62.9,63
		c-4.1,4-4.9,4.2-8.7,1.8c-3.6-2.2-5.6-1.2-6.8,3.3c-0.5,1.8-1.6,3.7-2.5,4.2C42.8,73.4,36.5,73.3,34.7,72.3z"/>
</g>
<path class="st1" d="M47,47c2.5-2.5,2.8-3.3,2.8-7.2c0-3.8-0.3-4.7-2.8-7.2s-3.3-2.8-7.2-2.8s-4.7,0.3-7.2,2.8s-2.8,3.3-2.8,7.2
	s0.3,4.7,2.8,7.2c2.5,2.5,3.3,2.8,7.2,2.8S44.5,49.5,47,47z"/>
</svg>
